<?xml version="1.0" encoding="utf-8"?>
<!-- Generator: Adobe Illustrator 26.5.0, SVG Export Plug-In . SVG Version: 6.00 Build 0)  -->
<svg version="1.1" id="Layer_1" xmlns="http://www.w3.org/2000/svg" xmlns:xlink="http://www.w3.org/1999/xlink" x="0px" y="0px"
	 viewBox="0 0 800 800" style="enable-background:new 0 0 800 800;" xml:space="preserve">
<style type="text/css">
	.st0{fill:#3D3B39;}
	.st1{opacity:0.95;}
	.st2{fill:#191919;}
	.st3{fill:#EFA467;}
	.st4{fill:#E0E0E0;}
	.st5{fill:#EFAF84;}
	.st6{opacity:0.2;fill:#F9F9F9;}
	.st7{opacity:0.6;}
	.st8{fill:#BCBCBC;}
</style>
<rect class="st0" width="800" height="800"/>
<g>
	<g class="st1">
		<path class="st2" d="M226.83,478.9H92.17C66.12,478.9,45,457.78,45,431.72v-57.5c0-26.05,21.12-47.17,47.17-47.17h134.65
			c26.05,0,47.17,21.12,47.17,47.17v57.5C274,457.78,252.88,478.9,226.83,478.9z"/>
	</g>
	<g id="XMLID_00000023995664776169074070000008658988579540786065_">
		<g>
			<path class="st3" d="M247,396.09v22.83c0,5.69-4.62,10.31-10.31,10.31s-10.31-4.62-10.31-10.31v-22.83
				c0-5.69,4.62-10.31,10.31-10.31c2.84,0,5.42,1.16,7.29,3.02C245.84,390.67,247,393.25,247,396.09z"/>
			<path class="st4" d="M216.81,376.95v58.17c0,5.69-4.62,10.31-10.31,10.31s-10.31-4.62-10.31-10.31v-58.17
				c0-5.69,4.62-10.31,10.31-10.31c2.84,0,5.42,1.16,7.29,3.02C215.66,371.53,216.81,374.11,216.81,376.95z"/>
			<path class="st4" d="M186.62,358.54v89.83c0,5.69-4.62,10.31-10.31,10.31c-5.69,0-10.31-4.62-10.31-10.31v-89.83
				c0-5.69,4.62-10.31,10.31-10.31c2.84,0,5.42,1.16,7.29,3.02C185.47,353.12,186.62,355.7,186.62,358.54z"/>
			<path class="st3" d="M156.43,377.69v50.07c0,5.69-4.62,10.31-10.31,10.31s-10.31-4.62-10.31-10.31v-50.07
				c0-5.69,4.62-10.31,10.31-10.31c2.84,0,5.42,1.16,7.29,3.02C155.28,372.27,156.43,374.84,156.43,377.69z"/>
			<path class="st4" d="M126.25,366.64v74.37c0,5.69-4.62,10.31-10.31,10.31c-5.69,0-10.31-4.62-10.31-10.31v-74.37
				c0-5.69,4.62-10.31,10.31-10.31c2.84,0,5.42,1.16,7.29,3.02C125.09,361.22,126.25,363.8,126.25,366.64z"/>
			<path class="st4" d="M96.06,396.09v22.83c0,5.69-4.62,10.31-10.31,10.31c-5.69,0-10.31-4.62-10.31-10.31v-22.83
				c0-5.69,4.62-10.31,10.31-10.31c2.84,0,5.42,1.16,7.29,3.02C94.9,390.67,96.06,393.25,96.06,396.09z"/>
		</g>
		<g>
		</g>
	</g>
</g>
<g>
	<g>
		<path class="st5" d="M328.85,379.19l6.17-8.64v66.75h-13.53v-70.02h30.98c5.62,0,10.25,0.8,13.89,2.39
			c3.64,1.6,6.35,3.91,8.13,6.94c1.78,3.03,2.67,6.69,2.67,10.97c0,4.75-1.03,8.73-3.09,11.96c-2.06,3.23-5.03,5.7-8.9,7.41
			c-3.88,1.71-8.51,2.57-13.89,2.57h-22.08v-11.79h21.96c4.04,0,7.16-0.85,9.38-2.57c2.21-1.71,3.32-4.12,3.32-7.24
			c0-1.79-0.42-3.36-1.25-4.73c-0.83-1.36-2.1-2.37-3.8-3.03c-1.7-0.66-4.06-0.99-7.06-0.99H328.85z M358.42,405.1l23.39,31.98v0.23
			h-16.26l-20.18-29.88L358.42,405.1z"/>
		<path class="st5" d="M402.22,397.51h3.44l-2.26,5.02c0.47-5.13,1.58-9.3,3.32-12.49c1.74-3.19,4.04-5.48,6.88-6.89
			s6.01-2.1,9.5-2.1c4.43,0,8.01,0.9,10.74,2.68c2.73,1.79,4.71,4.22,5.94,7.29c1.23,3.07,1.84,6.56,1.84,10.44v35.83h-12.82v-32.33
			c0-2.33-0.38-4.41-1.13-6.24c-0.75-1.83-1.96-3.34-3.62-4.55c-1.66-1.21-3.96-1.81-6.89-1.81c-2.77,0-5.13,0.49-7.06,1.46
			c-1.94,0.97-3.44,2.39-4.51,4.26s-1.6,4.12-1.6,6.77v32.44h-12.82v-71.54H404v35.48L402.22,397.51z"/>
		<path class="st5" d="M471.31,432.87l7.24,4.43l-8.31,0.23l-22.79-55.2h13.89l7.24,19.96c0.87,2.26,1.8,4.75,2.79,7.47
			c0.99,2.72,2,5.5,3.03,8.34c1.03,2.84,2.04,5.58,3.03,8.23c0.99,2.65,1.84,5.1,2.55,7.35l-7.48-9.34h8.31l-7,9.1
			c1.11-3.34,2.31-6.83,3.62-10.44c1.31-3.62,2.55-7.2,3.74-10.74c1.19-3.54,2.21-6.79,3.09-9.75l6.77-20.19h13.65l-22.91,55.55
			c-1.82,4.67-3.9,8.44-6.23,11.32c-2.33,2.88-5.04,5.02-8.13,6.42c-3.09,1.4-6.77,2.1-11.04,2.1c-1.74,0-3.26-0.08-4.57-0.23
			c-1.31-0.16-2.63-0.31-3.98-0.47l1.78-11.79c1.26,0.23,2.49,0.43,3.68,0.58c1.19,0.15,2.37,0.23,3.56,0.23
			c2.37,0,4.39-0.31,6.05-0.93c1.66-0.62,3.15-1.89,4.45-3.79C468.64,439.43,469.97,436.61,471.31,432.87z"/>
		<path class="st5" d="M506.81,382.46h36.8v10.62h-36.8V382.46z M514.29,420.62v-52.75h12.82v50.65c0,2.65,0.59,4.65,1.78,6.01
			c1.19,1.36,3.16,2.04,5.94,2.04c1.42,0,2.79-0.13,4.1-0.41c1.31-0.27,2.59-0.56,3.86-0.88l1.54,11.55
			c-1.35,0.39-2.61,0.74-3.8,1.05c-1.19,0.31-2.47,0.54-3.86,0.7c-1.39,0.15-2.99,0.23-4.81,0.23c-4.12,0-7.46-0.82-10.03-2.45
			c-2.57-1.63-4.47-3.81-5.7-6.54C514.9,427.12,514.29,424.04,514.29,420.62z"/>
		<path class="st5" d="M563.2,397.51h3.32l-2.14,5.02c0.47-5.21,1.6-9.37,3.38-12.49c1.78-3.11,4.06-5.39,6.83-6.83
			c2.77-1.44,5.94-2.16,9.5-2.16c4.43,0,8.01,0.9,10.74,2.68c2.73,1.79,4.71,4.22,5.94,7.29c1.23,3.07,1.84,6.56,1.84,10.44v2.45
			v33.38h-12.82v-32.33c0-2.33-0.38-4.41-1.13-6.24c-0.75-1.83-1.96-3.34-3.62-4.55c-1.66-1.21-3.96-1.81-6.89-1.81
			c-2.69,0-5.03,0.49-7,1.46c-1.98,0.97-3.5,2.39-4.57,4.26s-1.6,4.12-1.6,6.77v32.44h-12.82v-54.85h12.82v18.79L563.2,397.51z
			 M600.59,398.21h3.32l-1.9,4.32c0.39-5.13,1.42-9.3,3.09-12.49c1.66-3.19,3.86-5.48,6.59-6.89s5.95-2.1,9.68-2.1
			c4.59,0,8.27,0.9,11.04,2.68c2.77,1.79,4.75,4.22,5.94,7.29c1.19,3.07,1.78,6.56,1.78,10.44v35.83h-12.7v-32.33
			c0-2.33-0.38-4.41-1.13-6.24c-0.75-1.83-1.96-3.34-3.62-4.55c-1.66-1.21-3.96-1.81-6.89-1.81c-2.77,0-5.13,0.49-7.06,1.46
			c-1.94,0.97-3.44,2.39-4.51,4.26s-1.6,4.12-1.6,6.77h-1.78L600.59,398.21z"/>
		<path class="st5" d="M665.29,375.11H651.4v-9.34h13.89V375.11z M664.82,437.31H652v-54.85h12.82V437.31z"/>
		<path class="st5" d="M673.25,382.46h36.09v10.62h-36.09V382.46z M694.85,381.53v55.78h-12.82v-55.9c0-3.5,0.71-6.59,2.14-9.28
			c1.42-2.68,3.58-4.8,6.47-6.36c2.89-1.56,6.47-2.33,10.74-2.33c2.14,0,3.92,0.1,5.34,0.29c1.42,0.19,2.65,0.45,3.68,0.76
			l-1.07,8.99c-1.19-0.23-2.26-0.39-3.21-0.47c-0.95-0.08-1.98-0.12-3.09-0.12c-2.85,0-4.93,0.72-6.23,2.16
			C695.51,376.49,694.85,378.65,694.85,381.53z"/>
		<path class="st5" d="M736.64,432.87l7.24,4.43l-8.31,0.23l-22.79-55.2h13.89l7.24,19.96c0.87,2.26,1.8,4.75,2.79,7.47
			c0.99,2.72,2,5.5,3.03,8.34c1.03,2.84,2.04,5.58,3.03,8.23c0.99,2.65,1.84,5.1,2.55,7.35l-7.48-9.34h8.31l-7,9.1
			c1.11-3.34,2.31-6.83,3.62-10.44c1.31-3.62,2.55-7.2,3.74-10.74c1.19-3.54,2.21-6.79,3.09-9.75l6.77-20.19H770l-22.91,55.55
			c-1.82,4.67-3.9,8.44-6.23,11.32c-2.33,2.88-5.04,5.02-8.13,6.42c-3.09,1.4-6.77,2.1-11.04,2.1c-1.74,0-3.26-0.08-4.57-0.23
			c-1.31-0.16-2.63-0.31-3.98-0.47l1.78-11.79c1.26,0.23,2.49,0.43,3.68,0.58c1.19,0.15,2.37,0.23,3.56,0.23
			c2.37,0,4.39-0.31,6.05-0.93c1.66-0.62,3.15-1.89,4.45-3.79C733.97,439.43,735.29,436.61,736.64,432.87z"/>
	</g>
</g>
<rect x="294.28" y="351" transform="matrix(-1 -1.224647e-16 1.224647e-16 -1 589.2752 807)" class="st6" width="0.72" height="105"/>
<g class="st7">
	<path class="st8" d="M34.34,778.47h2.21v11.56h-2.21V778.47z M41.58,783.7v0.85L39.75,784c0.99,0,1.79,0.1,2.39,0.31
		c0.6,0.21,1.04,0.52,1.32,0.94c0.28,0.42,0.42,0.97,0.42,1.64c0,0.6-0.14,1.14-0.42,1.61c-0.28,0.47-0.72,0.84-1.31,1.12
		c-0.59,0.28-1.38,0.41-2.36,0.41h-4.68v-1.87h4.57c0.68,0,1.18-0.15,1.49-0.45c0.31-0.3,0.47-0.67,0.47-1.09
		c0-0.32-0.07-0.6-0.21-0.83c-0.14-0.23-0.35-0.41-0.65-0.54c-0.29-0.13-0.68-0.19-1.17-0.19h-4.25v-1.66h3.82
		c0.42,0,0.77-0.05,1.06-0.15c0.29-0.1,0.51-0.27,0.68-0.5c0.16-0.23,0.25-0.54,0.25-0.93c0-0.47-0.15-0.84-0.45-1.1
		c-0.3-0.26-0.78-0.39-1.45-0.39h-4v-1.87h4c1.4,0,2.43,0.25,3.1,0.75c0.67,0.5,1,1.23,1,2.2c0,0.66-0.14,1.21-0.42,1.66
		c-0.28,0.45-0.7,0.79-1.26,1.01c-0.56,0.23-1.26,0.34-2.1,0.36L41.58,783.7z"/>
	<path class="st8" d="M48.4,789.3l1.2,0.73l-1.37,0.04l-3.76-9.11h2.29l1.2,3.29c0.14,0.37,0.3,0.78,0.46,1.23
		c0.16,0.45,0.33,0.91,0.5,1.38c0.17,0.47,0.34,0.92,0.5,1.36c0.16,0.44,0.3,0.84,0.42,1.21l-1.23-1.54h1.37l-1.16,1.5
		c0.18-0.55,0.38-1.13,0.6-1.72c0.22-0.6,0.42-1.19,0.62-1.77c0.2-0.58,0.37-1.12,0.51-1.61l1.12-3.33h2.25l-3.78,9.17
		c-0.3,0.77-0.64,1.39-1.03,1.87c-0.39,0.47-0.83,0.83-1.34,1.06c-0.51,0.23-1.12,0.35-1.82,0.35c-0.29,0-0.54-0.01-0.75-0.04
		s-0.43-0.05-0.66-0.08l0.29-1.95c0.21,0.04,0.41,0.07,0.61,0.1c0.2,0.03,0.39,0.04,0.59,0.04c0.39,0,0.73-0.05,1-0.15
		s0.52-0.31,0.73-0.63C47.96,790.38,48.17,789.92,48.4,789.3z"/>
	<path class="st8" d="M54.88,780.92h2.45v2.39h-2.45V780.92z M54.88,787.64h2.45v2.39h-2.45V787.64z"/>
	<path class="st8" d="M62.74,778.47h2.21v11.56h-2.21V778.47z M64.33,784.54l5.66-6.07h2.61v0.04l-6.78,6.96h-2.14v-1.79H66
		l6.82,6.32v0.04h-2.72l-5.9-5.43L64.33,784.54z"/>
	<path class="st8" d="M75.97,779.76h-2.29v-1.54h2.29V779.76z M75.89,790.03h-2.12v-9.06h2.12V790.03z"/>
	<path class="st8" d="M80.5,790.23c-0.56,0-1.06-0.1-1.5-0.29c-0.44-0.19-0.78-0.48-1.02-0.86s-0.36-0.86-0.36-1.44
		c0-0.86,0.26-1.55,0.79-2.07c0.53-0.52,1.37-0.78,2.52-0.78h3.04l0.02,1.54h-2.74c-0.5,0-0.89,0.08-1.17,0.25
		c-0.28,0.17-0.42,0.41-0.42,0.73c0,0.21,0.06,0.4,0.17,0.59c0.11,0.19,0.28,0.34,0.51,0.45c0.23,0.12,0.54,0.17,0.93,0.17
		c0.5,0,0.92-0.08,1.28-0.25c0.36-0.17,0.63-0.4,0.82-0.68c0.19-0.29,0.28-0.62,0.28-0.99v-2.18c0-0.63-0.13-1.1-0.4-1.42
		c-0.27-0.31-0.72-0.47-1.36-0.47c-0.58,0-1.03,0.13-1.36,0.4c-0.33,0.27-0.55,0.74-0.64,1.41l-2-0.29c0.09-0.68,0.29-1.27,0.6-1.76
		c0.31-0.49,0.74-0.87,1.31-1.14s1.3-0.4,2.19-0.4c0.88,0,1.59,0.14,2.16,0.42s0.97,0.7,1.23,1.24s0.39,1.2,0.39,1.97v5.63h-2.12
		v-2.75l0.39,0.48h-0.53l0.27-1.35c-0.01,0.82-0.16,1.52-0.44,2.09c-0.28,0.57-0.66,1-1.14,1.29
		C81.74,790.08,81.17,790.23,80.5,790.23z"/>
	<path class="st8" d="M89.5,783.96l0.39-0.02l-0.22,0.71c0.09-0.74,0.21-1.36,0.36-1.84c0.15-0.48,0.33-0.85,0.55-1.12
		c0.22-0.26,0.48-0.45,0.78-0.56c0.31-0.11,0.65-0.16,1.03-0.16h0.53v2.33h-0.9c-0.55,0-0.99,0.07-1.33,0.2
		c-0.34,0.13-0.58,0.36-0.73,0.67c-0.15,0.31-0.23,0.73-0.23,1.27v4.58h-2.12v-9.06h2.12v3.54L89.5,783.96z"/>
	<path class="st8" d="M96.65,790.23c-0.56,0-1.06-0.1-1.5-0.29c-0.44-0.19-0.78-0.48-1.02-0.86s-0.36-0.86-0.36-1.44
		c0-0.86,0.26-1.55,0.79-2.07c0.53-0.52,1.37-0.78,2.52-0.78h3.04l0.02,1.54H97.4c-0.5,0-0.89,0.08-1.17,0.25
		c-0.28,0.17-0.42,0.41-0.42,0.73c0,0.21,0.06,0.4,0.17,0.59c0.11,0.19,0.28,0.34,0.51,0.45c0.23,0.12,0.54,0.17,0.93,0.17
		c0.5,0,0.92-0.08,1.28-0.25c0.36-0.17,0.63-0.4,0.82-0.68c0.19-0.29,0.28-0.62,0.28-0.99v-2.18c0-0.63-0.13-1.1-0.4-1.42
		c-0.27-0.31-0.72-0.47-1.36-0.47c-0.58,0-1.03,0.13-1.36,0.4c-0.33,0.27-0.55,0.74-0.64,1.41l-2-0.29c0.09-0.68,0.29-1.27,0.6-1.76
		c0.31-0.49,0.74-0.87,1.31-1.14s1.3-0.4,2.19-0.4c0.88,0,1.59,0.14,2.16,0.42s0.97,0.7,1.23,1.24s0.39,1.2,0.39,1.97v5.63h-2.12
		v-2.75l0.39,0.48h-0.53l0.27-1.35c-0.01,0.82-0.16,1.52-0.44,2.09c-0.28,0.57-0.66,1-1.14,1.29
		C97.89,790.08,97.32,790.23,96.65,790.23z"/>
	<path class="st8" d="M107.49,790.29c-0.98,0-1.76-0.13-2.35-0.41c-0.59-0.27-1.03-0.65-1.32-1.13s-0.5-1.01-0.62-1.59l1.98-0.39
		c0.1,0.39,0.24,0.72,0.41,1c0.17,0.28,0.41,0.51,0.73,0.67s0.72,0.25,1.22,0.25c0.56,0,0.98-0.11,1.25-0.32s0.42-0.49,0.43-0.84
		c0-0.22-0.07-0.4-0.2-0.56c-0.13-0.15-0.36-0.29-0.7-0.42c-0.33-0.13-0.81-0.24-1.42-0.35c-0.82-0.17-1.48-0.37-1.97-0.62
		c-0.49-0.24-0.85-0.55-1.07-0.91c-0.22-0.36-0.33-0.78-0.33-1.25c0-0.81,0.31-1.46,0.92-1.96c0.61-0.49,1.52-0.74,2.72-0.74
		c0.84,0,1.52,0.11,2.05,0.34c0.53,0.23,0.94,0.54,1.23,0.96c0.29,0.41,0.51,0.91,0.64,1.5l-2.02,0.46
		c-0.13-0.59-0.35-1.02-0.65-1.3c-0.3-0.28-0.72-0.41-1.25-0.41c-0.51,0-0.9,0.09-1.17,0.28c-0.27,0.19-0.4,0.45-0.4,0.78
		c0,0.22,0.06,0.41,0.18,0.58s0.34,0.31,0.67,0.43c0.33,0.12,0.8,0.24,1.41,0.36c0.85,0.15,1.53,0.36,2.04,0.62
		c0.51,0.26,0.87,0.57,1.08,0.92s0.31,0.77,0.31,1.23c0,0.55-0.14,1.04-0.41,1.46s-0.69,0.75-1.25,0.98
		C109.06,790.17,108.35,790.29,107.49,790.29z"/>
	<path class="st8" d="M114.51,783.46h0.57l-0.37,0.83c0.08-0.85,0.26-1.54,0.55-2.06c0.29-0.53,0.67-0.9,1.14-1.14
		c0.47-0.23,0.99-0.35,1.57-0.35c0.73,0,1.32,0.15,1.77,0.44c0.45,0.3,0.78,0.7,0.98,1.2c0.2,0.51,0.3,1.08,0.3,1.72v5.92h-2.12
		v-5.34c0-0.38-0.06-0.73-0.19-1.03c-0.12-0.3-0.32-0.55-0.6-0.75s-0.65-0.3-1.14-0.3c-0.46,0-0.85,0.08-1.17,0.24
		s-0.57,0.39-0.74,0.7s-0.26,0.68-0.26,1.12v5.36h-2.12v-11.81h2.12v5.86L114.51,783.46z"/>
	<path class="st8" d="M126.32,778.47h2.21v11.56h-2.21V778.47z M127.91,784.54l5.66-6.07h2.61v0.04l-6.78,6.96h-2.14v-1.79h2.31
		l6.82,6.32v0.04h-2.72l-5.9-5.43L127.91,784.54z"/>
	<path class="st8" d="M139.55,779.76h-2.29v-1.54h2.29V779.76z M139.48,790.03h-2.12v-9.06h2.12V790.03z"/>
	<path class="st8" d="M144.08,790.23c-0.56,0-1.06-0.1-1.5-0.29c-0.44-0.19-0.78-0.48-1.02-0.86s-0.36-0.86-0.36-1.44
		c0-0.86,0.26-1.55,0.79-2.07c0.53-0.52,1.37-0.78,2.52-0.78h3.04l0.02,1.54h-2.74c-0.5,0-0.89,0.08-1.17,0.25
		c-0.28,0.17-0.42,0.41-0.42,0.73c0,0.21,0.06,0.4,0.17,0.59c0.11,0.19,0.28,0.34,0.51,0.45c0.23,0.12,0.54,0.17,0.93,0.17
		c0.5,0,0.92-0.08,1.28-0.25c0.36-0.17,0.63-0.4,0.82-0.68c0.19-0.29,0.28-0.62,0.28-0.99v-2.18c0-0.63-0.13-1.1-0.4-1.42
		c-0.27-0.31-0.72-0.47-1.36-0.47c-0.58,0-1.03,0.13-1.36,0.4c-0.33,0.27-0.55,0.74-0.64,1.41l-2-0.29c0.09-0.68,0.29-1.27,0.6-1.76
		c0.31-0.49,0.74-0.87,1.31-1.14s1.3-0.4,2.19-0.4c0.88,0,1.59,0.14,2.16,0.42s0.97,0.7,1.23,1.24s0.39,1.2,0.39,1.97v5.63h-2.12
		v-2.75l0.39,0.48h-0.53l0.27-1.35c-0.01,0.82-0.16,1.52-0.44,2.09c-0.28,0.57-0.66,1-1.14,1.29
		C145.32,790.08,144.75,790.23,144.08,790.23z"/>
</g>
</svg>
