<?xml version="1.0" encoding="utf-8"?>
<!-- Generator: Adobe Illustrator 26.5.0, SVG Export Plug-In . SVG Version: 6.00 Build 0)  -->
<svg version="1.1" id="Layer_1" xmlns="http://www.w3.org/2000/svg" xmlns:xlink="http://www.w3.org/1999/xlink" x="0px" y="0px"
	 viewBox="0 0 737 159" style="enable-background:new 0 0 737 159;" xml:space="preserve">
<style type="text/css">
	.st0{fill:#262626;}
	.st1{fill:#F2A73B;}
</style>
<g>
	<g>
		<g id="XMLID_00000023995664776169074070000008658988579540786065_">
			<g>
				<path class="st0" d="M170,74.94v20.17c0,4.46-3.62,8.08-8.08,8.08c-4.46,0-8.08-3.62-8.08-8.08V74.94
					c0-4.46,3.62-8.08,8.08-8.08c2.23,0,4.25,0.91,5.71,2.36C169.09,70.69,170,72.71,170,74.94z"/>
				<path class="st0" d="M146.34,58.93v49.73c0,4.46-3.62,8.08-8.08,8.08s-8.08-3.62-8.08-8.08V58.93c0-4.46,3.62-8.08,8.08-8.08
					c2.23,0,4.25,0.91,5.71,2.36C145.43,54.68,146.34,56.7,146.34,58.93z"/>
				<path class="st0" d="M122.67,43.54v78.38c0,4.46-3.62,8.09-8.08,8.09s-8.08-3.62-8.08-8.09V43.54c0-4.46,3.62-8.08,8.08-8.08
					c2.23,0,4.25,0.91,5.71,2.36C121.77,39.28,122.67,41.3,122.67,43.54z"/>
				<path class="st1" d="M99.01,59.55v42.96c0,4.46-3.62,8.08-8.08,8.08s-8.08-3.62-8.08-8.08V59.55c0-4.46,3.62-8.08,8.08-8.08
					c2.23,0,4.25,0.91,5.71,2.36C98.1,55.29,99.01,57.31,99.01,59.55z"/>
				<path class="st0" d="M75.34,53.08v59.84c0,4.46-3.62,8.08-8.08,8.08s-8.08-3.61-8.08-8.08V53.08c0-4.46,3.62-8.08,8.08-8.08
					c2.23,0,4.25,0.91,5.71,2.36C74.44,48.83,75.34,50.85,75.34,53.08z"/>
				<path class="st0" d="M51.68,74.94v20.17c0,4.46-3.62,8.08-8.08,8.08s-8.08-3.62-8.08-8.08V74.94c0-4.46,3.62-8.08,8.08-8.08
					c2.23,0,4.25,0.91,5.71,2.36C50.77,70.69,51.68,72.71,51.68,74.94z"/>
			</g>
			<g>
			</g>
		</g>
	</g>
	<g>
		<path class="st1" d="M215.76,56.26l6.91-11.4v76.47h-15.53V40.83h31.78c5.9,0,10.81,0.92,14.74,2.75
			c3.92,1.83,6.85,4.58,8.79,8.25c1.94,3.67,2.91,8.18,2.91,13.55c0,5.63-1.09,10.35-3.28,14.15c-2.18,3.8-5.3,6.64-9.34,8.52
			c-4.04,1.88-8.94,2.82-14.68,2.82h-21.83V76.38h21.47c4.12,0,7.2-0.87,9.22-2.62c2.02-1.74,3.03-4.36,3.03-7.85
			c0-2.23-0.41-4.07-1.21-5.5c-0.81-1.43-2.06-2.48-3.76-3.15s-4-1.01-6.91-1.01H215.76z M247.06,84.83l23.05,35.95v0.54h-18.68
			l-19.17-33.54L247.06,84.83z"/>
		<path class="st1" d="M292.18,75.44h3.88l-2.43,5.37c0.65-5.81,1.88-10.53,3.7-14.15c1.82-3.62,4.12-6.26,6.91-7.92
			c2.79-1.65,5.92-2.48,9.4-2.48c4.29,0,7.74,0.99,10.37,2.95c2.63,1.97,4.57,4.67,5.82,8.12c1.25,3.44,1.88,7.4,1.88,11.87v42.12
			h-14.8V83.76c0-2.42-0.36-4.56-1.09-6.44c-0.73-1.88-1.84-3.38-3.34-4.49c-1.5-1.12-3.5-1.68-6-1.68c-2.51,0-4.69,0.54-6.55,1.61
			c-1.86,1.07-3.3,2.59-4.31,4.56c-1.01,1.97-1.52,4.34-1.52,7.11v36.89h-14.68V38.15h14.68V80L292.18,75.44z"/>
		<path class="st1" d="M362.17,115.55l8.25,5.77l-9.34,0.27L338.28,58h16.13l7.04,23.21c0.81,2.59,1.62,5.46,2.43,8.59
			c0.81,3.13,1.72,6.26,2.73,9.39c1.01,3.13,1.92,6.24,2.73,9.32c0.81,3.09,1.58,5.93,2.3,8.52l-7.64-12.74h9.1l-7.52,12.48
			c1.13-3.93,2.28-7.96,3.46-12.07c1.17-4.11,2.3-8.16,3.4-12.14c1.09-3.98,2.08-7.71,2.97-11.2L381.58,58h15.89l-23.05,63.45
			c-1.86,5.28-3.98,9.59-6.37,12.95c-2.39,3.35-5.18,5.79-8.37,7.31c-3.2,1.52-7.14,2.28-11.83,2.28c-1.86,0-3.48-0.09-4.85-0.27
			c-1.38-0.18-2.75-0.36-4.12-0.54l1.94-14.49c1.29,0.27,2.53,0.49,3.7,0.67c1.17,0.18,2.37,0.27,3.58,0.27
			c2.43,0,4.45-0.33,6.07-1.01c1.62-0.67,3.05-1.97,4.31-3.89C359.73,122.82,360.96,119.76,362.17,115.55z"/>
		<path class="st1" d="M400.02,58h38.09v13.55h-38.09V58z M407.3,101.74v-60.1h14.8v57.15c0,2.86,0.55,4.99,1.64,6.37
			c1.09,1.39,2.93,2.08,5.52,2.08c1.38,0,2.73-0.16,4.06-0.47c1.33-0.31,2.61-0.69,3.82-1.14l1.7,15.16
			c-1.38,0.45-2.69,0.85-3.94,1.21c-1.25,0.36-2.61,0.62-4.06,0.8c-1.46,0.18-3.15,0.27-5.09,0.27c-4.29,0-7.8-0.94-10.55-2.82
			c-2.75-1.88-4.75-4.43-6-7.65C407.92,109.38,407.3,105.76,407.3,101.74z"/>
		<path class="st1" d="M460.07,75.44h3.88l-2.3,5.5c0.49-5.81,1.64-10.55,3.46-14.22c1.82-3.67,4.14-6.33,6.97-7.98
			c2.83-1.65,5.98-2.48,9.46-2.48c4.29,0,7.72,0.99,10.31,2.95c2.59,1.97,4.51,4.67,5.76,8.12c1.25,3.44,1.88,7.4,1.88,11.87
			l0.12,3.35v38.77h-14.8V83.76c0-2.42-0.35-4.56-1.03-6.44c-0.69-1.88-1.8-3.38-3.34-4.49c-1.54-1.12-3.6-1.68-6.19-1.68
			c-2.51,0-4.67,0.54-6.49,1.61c-1.82,1.07-3.24,2.59-4.25,4.56c-1.01,1.97-1.52,4.34-1.52,7.11v36.89h-14.68V58h14.56v22
			L460.07,75.44z M497.06,75.98h4.37L499,80.94c0.65-5.81,1.82-10.53,3.52-14.15s3.92-6.28,6.67-7.98c2.75-1.7,5.98-2.55,9.7-2.55
			c4.29,0,7.76,0.99,10.43,2.95c2.67,1.97,4.65,4.67,5.94,8.12c1.29,3.44,1.94,7.4,1.94,11.87v42.12h-14.8V83.76
			c0-2.42-0.34-4.56-1.03-6.44c-0.69-1.88-1.8-3.38-3.34-4.49c-1.54-1.12-3.64-1.68-6.31-1.68c-2.43,0-4.55,0.54-6.37,1.61
			s-3.24,2.59-4.25,4.56c-1.01,1.97-1.52,4.34-1.52,7.11h-2.43L497.06,75.98z"/>
		<path class="st1" d="M564.63,49.82h-15.65V38.28h15.65V49.82z M564.27,121.32h-14.8V58h14.8V121.32z"/>
		<path class="st1" d="M573.24,58h37v13.55h-37V58z M596.41,56.53v64.79h-14.8V56.39c0-4.2,0.73-7.87,2.18-11
			c1.46-3.13,3.7-5.59,6.73-7.38c3.03-1.79,6.81-2.68,11.34-2.68c2.26,0,4.1,0.11,5.52,0.34c1.41,0.22,2.69,0.52,3.82,0.87
			l-1.09,11.54c-1.13-0.18-2.16-0.34-3.09-0.47c-0.93-0.13-1.92-0.2-2.97-0.2c-2.59,0-4.51,0.74-5.76,2.21
			C597.04,51.09,596.41,53.4,596.41,56.53z"/>
		<path class="st1" d="M637.9,115.55l8.25,5.77l-9.34,0.27L614,58h16.13l7.04,23.21c0.81,2.59,1.62,5.46,2.43,8.59
			c0.81,3.13,1.72,6.26,2.73,9.39c1.01,3.13,1.92,6.24,2.73,9.32c0.81,3.09,1.58,5.93,2.3,8.52l-7.64-12.74h9.1l-7.52,12.48
			c1.13-3.93,2.28-7.96,3.46-12.07c1.17-4.11,2.3-8.16,3.4-12.14c1.09-3.98,2.08-7.71,2.97-11.2L657.31,58h15.89l-23.05,63.45
			c-1.86,5.28-3.98,9.59-6.37,12.95c-2.39,3.35-5.18,5.79-8.37,7.31c-3.2,1.52-7.14,2.28-11.83,2.28c-1.86,0-3.48-0.09-4.85-0.27
			c-1.38-0.18-2.75-0.36-4.12-0.54l1.94-14.49c1.29,0.27,2.53,0.49,3.7,0.67c1.17,0.18,2.37,0.27,3.58,0.27
			c2.43,0,4.45-0.33,6.07-1.01c1.62-0.67,3.05-1.97,4.31-3.89C635.45,122.82,636.68,119.76,637.9,115.55z"/>
	</g>
</g>
</svg>
